<?xml version="1.0"?>
<svg xmlns:rdf="http://www.w3.org/1999/02/22-rdf-syntax-ns#" xmlns="http://www.w3.org/2000/svg" xmlns:cc="http://creativecommons.org/ns#" xmlns:xlink="http://www.w3.org/1999/xlink" xmlns:dc="http://purl.org/dc/elements/1.1/" xmlns:svg="http://www.w3.org/2000/svg" id="svg7032" viewBox="0 0 48 48">
  <defs id="defs3">
    <linearGradient id="linearGradient2315">
      <stop id="stop2317" stop-color="#fff" offset="0"/>
      <stop id="stop2319" stop-color="#fff" stop-opacity="0" offset="1"/>
    </linearGradient>
    <radialGradient id="radialGradient1358" xlink:href="#linearGradient2315" gradientUnits="userSpaceOnUse" cy="32.308" cx="4.392" gradientTransform="matrix(1 -2.8433e-17 5.3408e-18 .50980 5.7709e-16 16.054)" r="6.375"/>
    <radialGradient id="radialGradient1360" xlink:href="#linearGradient2315" gradientUnits="userSpaceOnUse" cy="32.308" cx="4.392" gradientTransform="matrix(1 -1.0833e-16 1.4544e-17 .50980 1.1852e-14 16.054)" r="6.375"/>
    <radialGradient id="radialGradient2078" gradientUnits="userSpaceOnUse" cy="35.375" cx="23.25" gradientTransform="matrix(1 0 0 .39865 0 21.273)" r="18.5">
      <stop id="stop2074" offset="0"/>
      <stop id="stop2076" stop-opacity="0" offset="1"/>
    </radialGradient>
  </defs>
  <g id="layer1">
    <path id="path1344" opacity=".3" style="color:#000000" d="m41.75 35.375a18.5 7.375 0 1 1 -37 0 18.5 7.375 0 1 1 37 0z" fill-rule="evenodd" transform="translate(0 2.8346)" fill="url(#radialGradient2078)"/>
    <path id="path7042" stroke-linejoin="round" style="color:#000000" d="m41.625 7.7952s-23.063 2.8348-23.063 2.8348v21.781c-1.645-0.558-3.931-0.703-6.437-0.187-4.3563 0.897-7.4779 3.299-7 5.343 0.4779 2.045 4.3937 2.991 8.75 2.094 4.117-0.848 7.684-3.038 7.603-5l0.156-19.031 16.93-2.896v17.285c-10.25-1.5-13.292 2.893-12.814 4.938 0.478 2.044 4.394 2.99 8.75 2.093 3.865-0.796 6.632-2.763 6.906-4.625l0.219-24.63z" stroke="#596616" stroke-linecap="round" display="block" fill="#9db029"/>
    <path id="path2311" opacity=".51176" style="color:#000000" d="m40.729 8.8956l-21.182 2.8344v21.839c-7.565-1.906-13.733 1.834-13.278 3.778 0.704 3.319 14.378 1.102 14.3-3.139l0.149-19.473 18.85-2.892v19.437c-7.566-1.927-13.265 1.376-12.811 3.32 0.58 3.194 12.379 2.114 13.764-2.657l0.208-23.047z" stroke="#fff" display="block" fill="none"/>
    <path id="path2313" opacity=".51176" style="color:#000000" d="m12.25 32.75a6.375 3.25 0 1 1 -12.75 0 6.375 3.25 0 1 1 12.75 0z" transform="matrix(.73452 -.11164 .11164 .73452 3.9034 12.226)" display="block" fill="url(#radialGradient1358)"/>
    <path id="path2323" opacity=".51176" style="color:#000000" d="m12.25 32.75a6.375 3.25 0 1 1 -12.75 0 6.375 3.25 0 1 1 12.75 0z" transform="matrix(.73452 -.11164 .11164 .73452 23.746 9.3909)" display="block" fill="url(#radialGradient1360)"/>
  </g>
  <metadata>
    <rdf:RDF>
      <cc:Work>
        <dc:format>image/svg+xml</dc:format>
        <dc:type rdf:resource="http://purl.org/dc/dcmitype/StillImage"/>
        <cc:license rdf:resource="http://creativecommons.org/licenses/publicdomain/"/>
        <dc:publisher>
          <cc:Agent rdf:about="http://openclipart.org/">
            <dc:title>Openclipart</dc:title>
          </cc:Agent>
        </dc:publisher>
        <dc:title>tango audio x generic</dc:title>
        <dc:date>2010-04-02T18:55:13</dc:date>
        <dc:description>An icon from Tango Project. Since version 0.8.90 Tango Project icons are Public Domain: </dc:description>
        <dc:source>http://openclipart.org/detail/36079/tango-audio-x-generic-by-warszawianka</dc:source>
        <dc:creator>
          <cc:Agent>
            <dc:title>warszawianka</dc:title>
          </cc:Agent>
        </dc:creator>
        <dc:subject>
          <rdf:Bag>
            <rdf:li>clip art</rdf:li>
            <rdf:li>clipart</rdf:li>
            <rdf:li>externalousrce</rdf:li>
            <rdf:li>green</rdf:li>
            <rdf:li>icon</rdf:li>
            <rdf:li>music</rdf:li>
            <rdf:li>note</rdf:li>
            <rdf:li>tango</rdf:li>
          </rdf:Bag>
        </dc:subject>
      </cc:Work>
      <cc:License rdf:about="http://creativecommons.org/licenses/publicdomain/">
        <cc:permits rdf:resource="http://creativecommons.org/ns#Reproduction"/>
        <cc:permits rdf:resource="http://creativecommons.org/ns#Distribution"/>
        <cc:permits rdf:resource="http://creativecommons.org/ns#DerivativeWorks"/>
      </cc:License>
    </rdf:RDF>
  </metadata>
</svg>
